<?xml version="1.0" encoding="utf-8"?>
<!-- Generator: Adobe Illustrator 27.3.1, SVG Export Plug-In . SVG Version: 6.00 Build 0)  -->
<svg version="1.1" id="Layer_1" xmlns="http://www.w3.org/2000/svg" xmlns:xlink="http://www.w3.org/1999/xlink" x="0px" y="0px"
	 viewBox="0 0 304.6 66.4" style="enable-background:new 0 0 304.6 66.4;" xml:space="preserve">
<style type="text/css">
	.st0{fill:#003593;}
	.st1{fill:#FFFFFF;}
	.st2{clip-path:url(#XMLID_00000154427945557139837580000014983008163148752035_);}
	.st3{clip-path:url(#XMLID_00000036950419078911875330000012847930043381156758_);fill:#FFFFFF;}
	.st4{clip-path:url(#XMLID_00000036950419078911875330000012847930043381156758_);fill:#BE0004;}
	.st5{fill:#0061ED;}
</style>
<g>
	<g id="XMLID_207_">
		<g id="XMLID_47_">
			<path id="XMLID_00000073713665310214776620000016682454868069730455_" class="st0" d="M17.6,11.1l-0.5,1.1l-0.7,0.2L16,13.5
				l-0.2,2.2l-2.4,2h-3l-1,0.5l-1.5,0.3v0.4l-1.7,0.3l-0.5,0.6l-1.5,0.5l-1.7,2.7v1l-0.9,0.6v1.3L2,27l0.8,0.6l0.4,1.1l-0.5,0.6H1.6
				l-0.2,0.4l0.9,0.9l1.3,2.2l0.7,1.4l-0.1,0.7l0.4,1.8l-0.1,0.9l0.9,1.8l0.5,3.4l-0.6,0.9l-0.5,0.7l0,0.9l1.8,0.9l1.8,0.3l0.9-0.7
				h0.8l0.5-0.6l0.7,0.1l1-0.6L13,44l4.4,0.1l0.9-0.7l1.3-0.4l0.4-0.7l1.1-0.1l0.3-0.6l1.1-0.5l1.2-0.4l2.1,0l0.8-0.5l1-0.4l0.8-0.8
				l2.4,0.4l0.8,0.5h2.2l0.7,0.5l1.2,0.6h1l0.4,1l0.6,0.5l0.7,1.4l0.5,0.5l0.5,1l1.1,0.2l0.5-1.1l1.2-1.1v-1l1.1-0.6l0.4,1.3l-0.7,1
				l-1.5,1.5v0.7h1h1.3v1l1.4,0.7l0.5,1l0.7,0.6l0.3,1.7l0.7,0.6l0.3,0.8l1.1,0.5h1.6l0.7,0.6l1.6,0.3l1.5-0.7L55,54l0.9,0.3
				l0.8,0.5l1.2-0.3l2.7-2.2l1.7-0.1l1.2-0.4l0.7-0.4v-3.6l0.5-0.9l0.2-0.8l0.6-0.4v-0.8l0.8-0.4l0.2-1.2l0.7-2c0,0,0.8-0.8,0.8-1
				s0-1,0-1l0.9-0.5v-2.9l0.5-0.9l0.4-2.1V31L69,29.9c0,0-0.5-2.2-0.6-2.6c-0.1-0.3-0.7-1.5-0.7-1.5l-0.1-1.2l-2.1-1.4l-1.1-1.2
				l-0.3-1l-1.3-0.7l-0.2-0.7l-0.4-0.5l-0.7-1.2l-0.7-0.4V17l-0.8-0.6l-2.5-1.3l-0.4-1.8l-0.7-1l0-1.9l-0.5-0.5l-0.3-1.6l-1.7-1.3
				l-0.3-0.7h-0.7l-0.6-2.1L52,3.8l-0.2-1.4h-0.7l-0.7-0.6h-0.7l0.1,2.3l-0.7,0.7l0.1,1.6l-0.7,0.8l-0.1,3.1l-0.6,1.5l-1,0.8
				L46,12.9l-1.1-1l-1.4-0.5L43.4,11L43,10.9l-0.8-1.1l-0.8,0l-1-0.8l-1.1-0.6V7.6l0.9-0.2L40.8,7l-0.4-0.8l-0.2-0.7l0.6-0.6l0-0.6
				l0.6-0.4l0-0.8l-3.2,0.4L37,2.8L36,2.9l-1.5-0.8l-0.9,0l-0.3-0.5h-1.1l-1.4,0.8l-0.6,0.8l0.6,0.1l1.9-0.4l-1.2,0.9l-2,1.6v0.6
				L28.7,7l-0.1,1.2l-0.7,0.7L27,8.5l-0.6-0.6l-0.9,0l-0.8-0.6l-1.1-0.1h-1l-0.4,0.7L21.6,8l-1,1.5l-1,0.2l0,1l-0.7,0.3L18.4,12
				L18,11.4L17.6,11.1z"/>
			<path id="XMLID_00000178167218172896874120000001544531268008196752_" class="st0" d="M41.3,47.3l-0.4,0.5L40.4,48l-0.3,0.6
				l0.7,0.1l0.6-0.3l1.1-0.3l0.2,0.8c0,0,1.1,0.1,1.2,0.1s0.4-0.4,0.4-0.4v-0.5l-1.1-0.6c0,0-0.2-0.2-0.2-0.3
				C42.9,47.2,41.3,47.3,41.3,47.3z"/>
			<polygon id="XMLID_00000028323221023071807390000009776125071163980698_" class="st0" points="54.5,57.3 54.2,58.4 55,59.3 
				55,60.9 55.8,62 55.8,63.4 56.6,64.1 57.8,65.3 58.8,65.3 60,63 60.1,61.3 60.6,60.6 60.4,60 59.8,59.3 60.6,58.7 60.3,57.7 
				58,58.5 56.5,58.8 55.4,57.6 			"/>
		</g>
		<polygon id="XMLID_197_" class="st1" points="16.5,38.5 17.5,37.2 15.8,37.5 15.4,35.8 14.6,37.3 13,36.7 13.7,38.2 12.2,39 
			13.8,39.5 13.5,41.2 14.9,40.1 16,41.4 16.1,39.7 17.8,39.7 		"/>
		<polygon id="XMLID_155_" class="st1" points="44.9,22.2 45.6,21.3 44.5,21.5 44.2,20.4 43.6,21.4 42.6,20.9 43,22 42,22.5 
			43.1,22.8 42.9,24 43.9,23.3 44.6,24.2 44.7,23 45.8,23 		"/>
		<polygon id="XMLID_201_" class="st1" points="56,22.2 55.3,21.3 56.5,21.5 56.8,20.4 57.3,21.4 58.4,20.9 57.9,22 58.9,22.5 
			57.8,22.8 58,24 57.1,23.3 56.3,24.2 56.3,23 55.1,23 		"/>
		<polygon id="XMLID_162_" class="st1" points="51.2,15.9 51.9,14.9 50.8,15.2 50.5,14 49.9,15.1 48.9,14.6 49.3,15.7 48.3,16.2 
			49.4,16.5 49.2,17.7 50.1,17 50.9,17.8 51,16.7 52.1,16.6 		"/>
		<polygon id="XMLID_205_" class="st1" points="49,45.3 49.7,44.4 48.5,44.6 48.2,43.5 47.7,44.5 46.6,44 47.1,45.1 46,45.6 
			47.2,45.9 46.9,47.1 47.9,46.4 48.6,47.3 48.7,46.1 49.8,46.1 		"/>
		<polygon id="XMLID_203_" class="st1" points="51,28 51.5,27.3 50.6,27.5 50.4,26.7 50,27.4 49.2,27.1 49.6,27.9 48.8,28.3 
			49.6,28.5 49.5,29.3 50.2,28.8 50.7,29.5 50.8,28.6 51.6,28.6 		"/>
		<g id="XMLID_55_">
			<defs>
				<path id="XMLID_00000124137564587744556720000006050541921120135091_" d="M17.6,11.1l-0.5,1.1l-0.7,0.2L16,13.5l-0.2,2.2l-2.4,2
					h-3l-1,0.5l-1.5,0.3v0.4l-1.7,0.3l-0.5,0.6l-1.5,0.5l-1.7,2.7v1l-0.9,0.6v1.3L2,27l0.8,0.6l0.4,1.1l-0.5,0.6H1.6l-0.2,0.4
					l0.9,0.9l1.3,2.2l0.7,1.4l-0.1,0.7l0.4,1.8l-0.1,0.9l0.9,1.8l0.5,3.4l-0.6,0.9l-0.5,0.7l0,0.9l1.8,0.9l1.8,0.3l0.9-0.7h0.8
					l0.5-0.6l0.7,0.1l1-0.6L13,44l4.4,0.1l0.9-0.7l1.3-0.4l0.4-0.7l1.1-0.1l0.3-0.6l1.1-0.5l1.2-0.4l2.1,0l0.8-0.5l1-0.4l0.8-0.8
					l2.4,0.4l0.8,0.5h2.2l0.7,0.5l1.2,0.6h1l0.4,1l0.6,0.5l0.7,1.4l0.5,0.5l0.5,1l1.1,0.2l0.5-1.1l1.2-1.1v-1l1.1-0.6l0.4,1.3
					l-0.7,1l-1.5,1.5v0.7h1h1.3v1l1.4,0.7l0.5,1l0.7,0.6l0.3,1.7l0.7,0.6l0.3,0.8l1.1,0.5h1.6l0.7,0.6l1.6,0.3l1.5-0.7L55,54
					l0.9,0.3l0.8,0.5l1.2-0.3l2.7-2.2l1.7-0.1l1.2-0.4l0.7-0.4v-3.6l0.5-0.9l0.2-0.8l0.6-0.4v-0.8l0.8-0.4l0.2-1.2l0.7-2
					c0,0,0.8-0.8,0.8-1s0-1,0-1l0.9-0.5v-2.9l0.5-0.9l0.4-2.1V31L69,29.9c0,0-0.5-2.2-0.6-2.6c-0.1-0.3-0.7-1.5-0.7-1.5l-0.1-1.2
					l-2.1-1.4l-1.1-1.2l-0.3-1l-1.3-0.7l-0.2-0.7l-0.4-0.5l-0.7-1.2l-0.7-0.4V17l-0.8-0.6l-2.5-1.3l-0.4-1.8l-0.7-1l0-1.9l-0.5-0.5
					l-0.3-1.6l-1.7-1.3l-0.3-0.7h-0.7l-0.6-2.1L52,3.8l-0.2-1.4h-0.7l-0.7-0.6h-0.7l0.1,2.3l-0.7,0.7l0.1,1.6l-0.7,0.8l-0.1,3.1
					l-0.6,1.5l-1,0.8L46,12.9l-1.1-1l-1.4-0.5L43.4,11L43,10.9l-0.8-1.1l-0.8,0l-1-0.8l-1.1-0.6V7.6l0.9-0.2L40.8,7l-0.4-0.8
					l-0.2-0.7l0.6-0.6l0-0.6l0.6-0.4l0-0.8l-3.2,0.4L37,2.8L36,2.9l-1.5-0.8l-0.9,0l-0.3-0.5h-1.1l-1.4,0.8l-0.6,0.8l0.6,0.1
					l1.9-0.4l-1.2,0.9l-2,1.6v0.6L28.7,7l-0.1,1.2l-0.7,0.7L27,8.5l-0.6-0.6l-0.9,0l-0.8-0.6l-1.1-0.1h-1l-0.4,0.7L21.6,8l-1,1.5
					l-1,0.2l0,1l-0.7,0.3L18.4,12L18,11.4L17.6,11.1z"/>
			</defs>
			<clipPath id="XMLID_00000036950819520175340930000014395668224223852454_">
				<use xlink:href="#XMLID_00000124137564587744556720000006050541921120135091_"  style="overflow:visible;"/>
			</clipPath>
			<g id="XMLID_152_" style="clip-path:url(#XMLID_00000036950819520175340930000014395668224223852454_);">
				<defs>
					<rect id="XMLID_146_" x="-1.2" y="14.6" width="29.7" height="15.7"/>
				</defs>
				<clipPath id="XMLID_00000171715487296610535130000008942000534280674693_">
					<use xlink:href="#XMLID_146_"  style="overflow:visible;"/>
				</clipPath>
				
					<rect id="XMLID_151_" x="-4.2" y="21.3" transform="matrix(-0.8892 0.4575 -0.4575 -0.8892 35.9691 36.226)" style="clip-path:url(#XMLID_00000171715487296610535130000008942000534280674693_);fill:#FFFFFF;" width="35.7" height="2.3"/>
				
					<rect id="XMLID_154_" x="-4.2" y="21.3" transform="matrix(0.8892 0.4575 -0.4575 0.8892 11.785 -3.732)" style="clip-path:url(#XMLID_00000171715487296610535130000008942000534280674693_);fill:#FFFFFF;" width="35.7" height="2.3"/>
				
					<rect id="XMLID_153_" x="-4.2" y="21.7" transform="matrix(0.8892 0.4575 -0.4575 0.8892 11.785 -3.732)" style="clip-path:url(#XMLID_00000171715487296610535130000008942000534280674693_);fill:#BE0004;" width="35.7" height="1.5"/>
				
					<rect id="XMLID_145_" x="-1.2" y="20.2" style="clip-path:url(#XMLID_00000171715487296610535130000008942000534280674693_);fill:#FFFFFF;" width="29.7" height="4.5"/>
				
					<rect id="XMLID_147_" x="5.7" y="20.7" transform="matrix(-1.836970e-16 1 -1 -1.836970e-16 36.0664 8.8695)" style="clip-path:url(#XMLID_00000171715487296610535130000008942000534280674693_);fill:#FFFFFF;" width="15.7" height="3.5"/>
				
					<rect id="XMLID_150_" x="12" y="7.6" transform="matrix(-1.836970e-16 1 -1 -1.836970e-16 36.0664 8.8696)" style="clip-path:url(#XMLID_00000171715487296610535130000008942000534280674693_);fill:#BE0004;" width="3.3" height="29.7"/>
				
					<rect id="XMLID_149_" x="5.7" y="21.3" transform="matrix(-1.836970e-16 1 -1 -1.836970e-16 36.0664 8.8695)" style="clip-path:url(#XMLID_00000171715487296610535130000008942000534280674693_);fill:#BE0004;" width="15.7" height="2.3"/>
				
					<rect id="XMLID_148_" x="-4.2" y="21.7" transform="matrix(-0.8892 0.4575 -0.4575 -0.8892 35.9691 36.2261)" style="clip-path:url(#XMLID_00000171715487296610535130000008942000534280674693_);fill:#BE0004;" width="35.7" height="1.5"/>
			</g>
		</g>
	</g>
	<g>
		<path class="st5" d="M79.9,28.9v13.7c0,0.4-0.2,0.6-0.5,0.6h-3.2c-0.3,0-0.5-0.2-0.5-0.6V28.9h-1.4c-0.1,0-0.3,0-0.4-0.1
			c-0.1-0.1-0.2-0.2-0.2-0.4v-2.8c0-0.2,0.1-0.3,0.2-0.4c0.1-0.1,0.2-0.1,0.4-0.1h1.4v-2.7c0-0.2,0-0.4,0.1-0.5
			c0.1-0.1,0.2-0.2,0.4-0.3l2.7-0.9c0.2-0.1,0.4,0,0.6,0.1c0.2,0.1,0.2,0.3,0.2,0.6v3.6h2.2c0.1,0,0.3,0.1,0.4,0.2
			c0.1,0.1,0.2,0.2,0.2,0.4v2.8c0,0.2-0.1,0.3-0.2,0.4c-0.1,0.1-0.2,0.1-0.4,0.1H79.9z"/>
		<path class="st5" d="M94.1,31.2c0-0.4-0.1-0.7-0.2-1c-0.1-0.3-0.3-0.6-0.5-0.8s-0.5-0.4-0.8-0.6c-0.3-0.1-0.6-0.2-1-0.2
			c-0.4,0-0.7,0.1-1,0.3c-0.3,0.2-0.6,0.4-0.8,0.6c-0.2,0.3-0.4,0.6-0.5,0.9c-0.1,0.3-0.2,0.6-0.2,1v11.3c0,0.2-0.1,0.3-0.3,0.5
			c-0.2,0.1-0.3,0.2-0.5,0.2h-2.8c-0.2,0-0.3-0.1-0.4-0.2C85,42.9,85,42.7,85,42.5V20.4c0-0.2,0-0.3,0.1-0.4
			c0.1-0.1,0.2-0.1,0.4-0.1h3.1c0.2,0,0.3,0,0.4,0.1s0.1,0.2,0.1,0.4v6.5c0.4-0.6,0.9-1.2,1.5-1.6s1.3-0.6,2.1-0.6
			c0.8,0,1.5,0.1,2.2,0.4s1.2,0.7,1.7,1.2c0.5,0.6,0.9,1.2,1.1,2.1c0.3,0.8,0.4,1.8,0.4,2.9v11.2c0,0.2,0,0.3-0.1,0.4
			c-0.1,0.1-0.2,0.1-0.4,0.1h-3.1c-0.2,0-0.3,0-0.4-0.1c-0.1-0.1-0.1-0.2-0.1-0.4V31.2z"/>
		<path class="st5" d="M100.7,31.5c0-1,0.2-1.8,0.5-2.7c0.3-0.8,0.8-1.6,1.4-2.2c0.6-0.6,1.3-1.1,2.1-1.5c0.8-0.4,1.6-0.5,2.5-0.5
			c0.8,0,1.6,0.1,2.4,0.4c0.8,0.3,1.5,0.7,2.1,1.3c0.6,0.6,1.1,1.3,1.5,2.2s0.5,1.9,0.5,3.1v2.8c0,0.3-0.1,0.5-0.2,0.6
			c-0.2,0.1-0.4,0.2-0.7,0.2h-1.9l0,0h-6.2V37c0,0.4,0.1,0.8,0.2,1.1c0.1,0.3,0.3,0.6,0.5,0.9c0.2,0.3,0.5,0.4,0.8,0.6
			s0.7,0.2,1.1,0.2c0.4,0,0.7-0.1,1-0.2c0.3-0.1,0.5-0.3,0.8-0.4c0.2-0.2,0.4-0.4,0.5-0.6c0.1-0.2,0.2-0.5,0.2-0.7v-0.1
			c0-0.1,0-0.2,0.1-0.3c0.1-0.1,0.2-0.1,0.3-0.1h3c0.1,0,0.2,0,0.2,0.1c0,0.1,0.1,0.2,0.1,0.4v0.2c0,0.7-0.2,1.5-0.5,2.1
			s-0.8,1.2-1.3,1.7c-0.6,0.5-1.2,0.9-1.9,1.2c-0.7,0.3-1.5,0.4-2.3,0.4c-1,0-1.9-0.2-2.7-0.5c-0.8-0.3-1.5-0.8-2.1-1.4
			c-0.6-0.6-1.1-1.3-1.4-2.2s-0.5-1.7-0.5-2.7V31.5z M104.7,32.4h5.1V31c0-0.3-0.1-0.6-0.2-1c-0.1-0.3-0.3-0.6-0.5-0.8
			c-0.2-0.2-0.5-0.4-0.8-0.6c-0.3-0.2-0.7-0.2-1.1-0.2c-0.4,0-0.7,0.1-1,0.2c-0.3,0.2-0.6,0.4-0.8,0.6c-0.2,0.3-0.4,0.5-0.5,0.9
			s-0.2,0.7-0.2,1V32.4z"/>
		<path class="st0" d="M115.4,31.5c0-0.9,0.1-1.8,0.4-2.6c0.3-0.8,0.7-1.5,1.3-2.2s1.2-1.1,2-1.5c0.8-0.4,1.6-0.6,2.5-0.6
			c0.4,0,0.8,0.1,1.2,0.2c0.3,0.1,0.7,0.3,0.9,0.5s0.5,0.4,0.7,0.7c0.2,0.3,0.4,0.6,0.6,0.9l0.2-1.4c0.1-0.4,0.4-0.6,0.7-0.6h2.1
			c0.2,0,0.3,0.1,0.4,0.2c0.1,0.1,0.1,0.3,0.1,0.5v16.9c0,0.2,0,0.3-0.1,0.4c-0.1,0.1-0.2,0.2-0.4,0.2H126c-0.2,0-0.3-0.1-0.4-0.2
			c-0.1-0.1-0.2-0.3-0.3-0.4l-0.2-1.4c-0.2,0.3-0.3,0.6-0.6,0.9c-0.2,0.3-0.5,0.5-0.7,0.7c-0.3,0.2-0.6,0.4-0.9,0.5
			c-0.3,0.1-0.7,0.2-1.2,0.2c-0.9,0-1.8-0.2-2.6-0.5c-0.8-0.3-1.4-0.8-2-1.4c-0.5-0.6-1-1.3-1.3-2.1c-0.3-0.8-0.4-1.7-0.4-2.7V31.5z
			 M119.6,36.8c0,0.4,0.1,0.7,0.2,1.1c0.1,0.3,0.3,0.6,0.5,0.9c0.2,0.3,0.5,0.5,0.8,0.6c0.3,0.1,0.7,0.2,1,0.2c0.4,0,0.7-0.1,1-0.2
			s0.5-0.4,0.8-0.6s0.4-0.6,0.5-0.9c0.1-0.4,0.2-0.8,0.2-1.2v-5.1c0-0.4-0.1-0.8-0.2-1.2c-0.1-0.4-0.3-0.7-0.5-1s-0.5-0.5-0.8-0.7
			c-0.3-0.2-0.6-0.2-1-0.2c-0.4,0-0.7,0.1-1,0.2s-0.6,0.4-0.8,0.6c-0.2,0.3-0.4,0.6-0.5,0.9s-0.2,0.7-0.2,1.1V36.8z"/>
		<path class="st0" d="M136.1,37c0,0.4,0.1,0.7,0.2,1c0.1,0.3,0.3,0.6,0.5,0.8c0.2,0.2,0.5,0.4,0.8,0.6c0.3,0.1,0.6,0.2,1,0.2
			c0.3,0,0.7-0.1,1-0.2c0.3-0.2,0.6-0.4,0.8-0.6s0.4-0.5,0.5-0.9c0.1-0.3,0.2-0.6,0.2-1V25.7c0-0.2,0.1-0.3,0.3-0.5
			c0.2-0.1,0.3-0.2,0.5-0.2h2.8c0.2,0,0.3,0.1,0.4,0.2c0.1,0.1,0.1,0.3,0.1,0.5v16.9c0,0.2,0,0.3-0.1,0.4s-0.2,0.1-0.4,0.1h-2.1
			c-0.4,0-0.7-0.2-0.8-0.6l-0.4-1.9c-0.2,0.4-0.4,0.8-0.7,1.1c-0.3,0.3-0.6,0.6-0.9,0.9c-0.3,0.2-0.7,0.4-1.1,0.6
			c-0.4,0.1-0.8,0.2-1.3,0.2c-0.8,0-1.5-0.1-2.2-0.4c-0.7-0.3-1.2-0.7-1.7-1.2c-0.5-0.6-0.9-1.2-1.1-2.1c-0.3-0.8-0.4-1.8-0.4-2.9
			V25.7c0-0.2,0-0.3,0.1-0.4c0.1-0.1,0.2-0.1,0.4-0.1h3.1c0.2,0,0.3,0,0.4,0.1c0.1,0.1,0.1,0.2,0.1,0.4V37z"/>
		<path class="st0" d="M147.7,37.9c0-0.1,0-0.3,0.1-0.4c0-0.1,0.2-0.2,0.4-0.2h3c0.1,0,0.2,0,0.3,0.1c0.1,0,0.1,0.1,0.1,0.3v0.1
			c0,0.3,0.1,0.6,0.2,0.9s0.3,0.5,0.5,0.6c0.2,0.2,0.5,0.3,0.8,0.4c0.3,0.1,0.7,0.1,1,0.1c0.6,0,1.2-0.1,1.6-0.4s0.6-0.7,0.6-1.3
			c0-0.3-0.1-0.5-0.2-0.8c-0.2-0.2-0.4-0.4-0.7-0.6c-0.3-0.2-0.7-0.4-1.2-0.6c-0.5-0.2-1-0.5-1.7-0.8c-0.7-0.4-1.4-0.7-2-1.1
			c-0.6-0.3-1.1-0.7-1.5-1.1s-0.7-0.9-0.9-1.4c-0.2-0.5-0.3-1.1-0.3-1.8c0-0.7,0.2-1.4,0.5-2s0.8-1.2,1.3-1.7
			c0.6-0.5,1.2-0.9,1.9-1.1s1.5-0.4,2.3-0.4c1,0,1.9,0.1,2.6,0.4c0.8,0.3,1.4,0.7,1.9,1.2c0.5,0.5,0.9,1.1,1.2,1.7
			c0.3,0.6,0.4,1.3,0.4,2v0.1c0,0.2,0,0.3-0.1,0.4c-0.1,0.1-0.2,0.1-0.4,0.1H157c-0.1,0-0.2,0-0.3-0.1c-0.1,0-0.1-0.1-0.1-0.3v-0.1
			c0-0.3-0.1-0.5-0.2-0.7c-0.1-0.2-0.3-0.4-0.5-0.6c-0.2-0.2-0.4-0.3-0.7-0.4c-0.3-0.1-0.6-0.1-0.9-0.1c-0.7,0-1.3,0.1-1.7,0.4
			c-0.4,0.3-0.6,0.7-0.6,1.2c0,0.3,0.1,0.6,0.3,0.8c0.2,0.2,0.4,0.4,0.8,0.6c0.3,0.2,0.8,0.4,1.3,0.6c0.5,0.2,1.1,0.5,1.7,0.8
			c0.8,0.4,1.5,0.8,2.1,1.2c0.6,0.4,1,0.7,1.3,1.1c0.3,0.4,0.6,0.8,0.7,1.3c0.1,0.5,0.2,1,0.2,1.7c0,0.8-0.2,1.5-0.5,2.1
			c-0.3,0.6-0.7,1.2-1.3,1.7c-0.6,0.5-1.2,0.8-2,1.1c-0.8,0.3-1.6,0.4-2.5,0.4c-1,0-1.9-0.1-2.7-0.4s-1.5-0.7-2.1-1.2
			c-0.6-0.5-1-1.1-1.3-1.8C147.9,39.4,147.7,38.7,147.7,37.9L147.7,37.9z"/>
		<path class="st0" d="M167.8,28.9v13.7c0,0.4-0.2,0.6-0.5,0.6h-3.2c-0.3,0-0.5-0.2-0.5-0.6V28.9h-1.4c-0.1,0-0.3,0-0.4-0.1
			c-0.1-0.1-0.2-0.2-0.2-0.4v-2.8c0-0.2,0.1-0.3,0.2-0.4c0.1-0.1,0.2-0.1,0.4-0.1h1.4v-2.7c0-0.2,0-0.4,0.1-0.5
			c0.1-0.1,0.2-0.2,0.4-0.3l2.7-0.9c0.2-0.1,0.4,0,0.6,0.1c0.2,0.1,0.2,0.3,0.2,0.6v3.6h2.2c0.1,0,0.3,0.1,0.4,0.2
			c0.1,0.1,0.2,0.2,0.2,0.4v2.8c0,0.2-0.1,0.3-0.2,0.4c-0.1,0.1-0.2,0.1-0.4,0.1H167.8z"/>
		<path class="st0" d="M172.8,25.7c0-0.2,0-0.3,0.1-0.4c0.1-0.1,0.2-0.1,0.4-0.1h2.1c0.2,0,0.4,0,0.5,0.1c0.1,0.1,0.2,0.2,0.3,0.4
			l0.3,1.9c0.2-0.4,0.4-0.8,0.7-1.1c0.3-0.3,0.5-0.6,0.9-0.9c0.3-0.3,0.7-0.5,1.1-0.6s0.8-0.2,1.3-0.2c0.5,0,0.9,0,1.3,0.1
			c0.4,0.1,0.7,0.2,0.9,0.3c0.2,0.1,0.3,0.2,0.3,0.4s0,0.4,0,0.5l0,2.5c0,0.3-0.1,0.5-0.3,0.6c-0.2,0.1-0.4,0.2-0.6,0.1
			c-0.2,0-0.5-0.1-0.7-0.2c-0.2-0.1-0.4-0.2-0.6-0.3c-0.2-0.1-0.4-0.2-0.6-0.3c-0.2-0.1-0.5-0.1-0.7-0.1c-0.4,0-0.7,0.1-1,0.2
			c-0.3,0.1-0.6,0.3-0.8,0.5c-0.2,0.2-0.4,0.5-0.5,0.9c-0.1,0.4-0.2,0.8-0.2,1.2v11.1c0,0.2-0.1,0.3-0.3,0.5
			c-0.2,0.1-0.3,0.2-0.5,0.2h-2.8c-0.2,0-0.3-0.1-0.4-0.2c-0.1-0.1-0.1-0.3-0.1-0.5V25.7z"/>
		<path class="st0" d="M183.8,31.5c0-0.9,0.1-1.8,0.4-2.6c0.3-0.8,0.7-1.5,1.3-2.2s1.2-1.1,2-1.5c0.8-0.4,1.6-0.6,2.5-0.6
			c0.4,0,0.8,0.1,1.2,0.2c0.3,0.1,0.7,0.3,0.9,0.5s0.5,0.4,0.7,0.7c0.2,0.3,0.4,0.6,0.6,0.9l0.2-1.4c0.1-0.4,0.4-0.6,0.7-0.6h2.1
			c0.2,0,0.3,0.1,0.4,0.2c0.1,0.1,0.1,0.3,0.1,0.5v16.9c0,0.2,0,0.3-0.1,0.4c-0.1,0.1-0.2,0.2-0.4,0.2h-2.2c-0.2,0-0.3-0.1-0.4-0.2
			c-0.1-0.1-0.2-0.3-0.3-0.4l-0.2-1.4c-0.2,0.3-0.3,0.6-0.6,0.9c-0.2,0.3-0.5,0.5-0.7,0.7c-0.3,0.2-0.6,0.4-0.9,0.5
			c-0.3,0.1-0.7,0.2-1.2,0.2c-0.9,0-1.8-0.2-2.6-0.5c-0.8-0.3-1.4-0.8-2-1.4c-0.5-0.6-1-1.3-1.3-2.1c-0.3-0.8-0.4-1.7-0.4-2.7V31.5z
			 M187.9,36.8c0,0.4,0.1,0.7,0.2,1.1c0.1,0.3,0.3,0.6,0.5,0.9s0.5,0.5,0.8,0.6c0.3,0.1,0.7,0.2,1,0.2c0.4,0,0.7-0.1,1-0.2
			c0.3-0.2,0.5-0.4,0.8-0.6c0.2-0.3,0.4-0.6,0.5-0.9c0.1-0.4,0.2-0.8,0.2-1.2v-5.1c0-0.4-0.1-0.8-0.2-1.2c-0.1-0.4-0.3-0.7-0.5-1
			s-0.5-0.5-0.8-0.7c-0.3-0.2-0.6-0.2-1-0.2c-0.4,0-0.7,0.1-1,0.2s-0.6,0.4-0.8,0.6s-0.4,0.6-0.5,0.9s-0.2,0.7-0.2,1.1V36.8z"/>
		<path class="st0" d="M199.6,31.5c0-0.9,0.1-1.8,0.4-2.6c0.3-0.8,0.7-1.6,1.2-2.2c0.5-0.6,1.2-1.1,1.9-1.5c0.8-0.4,1.6-0.6,2.5-0.6
			c0.7,0,1.3,0.1,1.8,0.4c0.5,0.3,0.9,0.7,1.3,1.2v-5.9c0-0.2,0.1-0.4,0.2-0.5c0.1-0.1,0.3-0.1,0.5-0.1h2.8c0.2,0,0.3,0,0.4,0.1
			c0.1,0.1,0.1,0.2,0.1,0.4v22.2c0,0.2,0,0.3-0.1,0.5c-0.1,0.1-0.2,0.2-0.4,0.2h-2.2c-0.2,0-0.3-0.1-0.4-0.2
			c-0.1-0.1-0.2-0.3-0.3-0.4l-0.2-1.5c-0.2,0.3-0.4,0.7-0.6,1c-0.2,0.3-0.5,0.6-0.8,0.8c-0.3,0.2-0.6,0.4-1,0.5
			c-0.4,0.1-0.7,0.2-1.2,0.2c-0.9,0-1.8-0.2-2.5-0.5c-0.8-0.3-1.4-0.8-1.9-1.4c-0.5-0.6-0.9-1.3-1.2-2.1c-0.3-0.8-0.4-1.7-0.4-2.7
			V31.5z M203.8,36.8c0,0.4,0.1,0.7,0.2,1.1c0.1,0.3,0.3,0.6,0.5,0.9s0.5,0.5,0.8,0.6c0.3,0.1,0.7,0.2,1,0.2c0.4,0,0.7-0.1,1-0.2
			c0.3-0.2,0.6-0.4,0.8-0.7c0.2-0.3,0.4-0.6,0.5-1c0.1-0.4,0.2-0.8,0.2-1.2v-4.9c0-0.4-0.1-0.8-0.2-1.2c-0.1-0.4-0.3-0.7-0.5-1
			c-0.2-0.3-0.5-0.5-0.8-0.7c-0.3-0.2-0.6-0.3-1-0.3c-0.4,0-0.7,0.1-1,0.2s-0.6,0.4-0.8,0.6c-0.2,0.3-0.4,0.6-0.5,0.9
			s-0.2,0.7-0.2,1.1V36.8z"/>
		<path class="st0" d="M215.5,31.5c0-1,0.2-1.8,0.5-2.7c0.3-0.8,0.8-1.6,1.4-2.2c0.6-0.6,1.3-1.1,2.1-1.5c0.8-0.4,1.6-0.5,2.5-0.5
			c0.8,0,1.6,0.1,2.4,0.4c0.8,0.3,1.5,0.7,2.1,1.3c0.6,0.6,1.1,1.3,1.5,2.2c0.4,0.9,0.5,1.9,0.5,3.1v2.8c0,0.3-0.1,0.5-0.2,0.6
			s-0.4,0.2-0.7,0.2h-1.9l0,0h-6.2V37c0,0.4,0.1,0.8,0.2,1.1c0.1,0.3,0.3,0.6,0.5,0.9c0.2,0.3,0.5,0.4,0.8,0.6
			c0.3,0.1,0.7,0.2,1.1,0.2c0.4,0,0.7-0.1,1-0.2s0.5-0.3,0.8-0.4c0.2-0.2,0.4-0.4,0.5-0.6c0.1-0.2,0.2-0.5,0.2-0.7v-0.1
			c0-0.1,0-0.2,0.1-0.3c0.1-0.1,0.2-0.1,0.3-0.1h3c0.1,0,0.2,0,0.2,0.1c0,0.1,0.1,0.2,0.1,0.4v0.2c0,0.7-0.2,1.5-0.5,2.1
			c-0.3,0.7-0.8,1.2-1.3,1.7c-0.6,0.5-1.2,0.9-1.9,1.2c-0.7,0.3-1.5,0.4-2.3,0.4c-1,0-1.9-0.2-2.7-0.5c-0.8-0.3-1.5-0.8-2.1-1.4
			c-0.6-0.6-1.1-1.3-1.4-2.2c-0.3-0.8-0.5-1.7-0.5-2.7V31.5z M219.5,32.4h5.1V31c0-0.3-0.1-0.6-0.2-1s-0.3-0.6-0.5-0.8
			c-0.2-0.2-0.5-0.4-0.8-0.6c-0.3-0.2-0.7-0.2-1.1-0.2c-0.4,0-0.7,0.1-1,0.2c-0.3,0.2-0.6,0.4-0.8,0.6c-0.2,0.3-0.4,0.5-0.5,0.9
			c-0.1,0.3-0.2,0.7-0.2,1V32.4z"/>
		<path class="st0" d="M230.1,37.9c0-0.1,0-0.3,0.1-0.4c0-0.1,0.2-0.2,0.4-0.2h3c0.1,0,0.2,0,0.3,0.1c0.1,0,0.1,0.1,0.1,0.3v0.1
			c0,0.3,0.1,0.6,0.2,0.9s0.3,0.5,0.5,0.6c0.2,0.2,0.5,0.3,0.8,0.4c0.3,0.1,0.7,0.1,1,0.1c0.6,0,1.2-0.1,1.6-0.4s0.6-0.7,0.6-1.3
			c0-0.3-0.1-0.5-0.2-0.8c-0.2-0.2-0.4-0.4-0.7-0.6c-0.3-0.2-0.7-0.4-1.2-0.6c-0.5-0.2-1-0.5-1.7-0.8c-0.7-0.4-1.4-0.7-2-1.1
			c-0.6-0.3-1.1-0.7-1.5-1.1s-0.7-0.9-0.9-1.4c-0.2-0.5-0.3-1.1-0.3-1.8c0-0.7,0.2-1.4,0.5-2c0.3-0.6,0.8-1.2,1.3-1.7
			s1.2-0.9,1.9-1.1c0.7-0.3,1.5-0.4,2.3-0.4c1,0,1.9,0.1,2.6,0.4c0.8,0.3,1.4,0.7,1.9,1.2c0.5,0.5,0.9,1.1,1.2,1.7
			c0.3,0.6,0.4,1.3,0.4,2v0.1c0,0.2,0,0.3-0.1,0.4c-0.1,0.1-0.2,0.1-0.4,0.1h-2.8c-0.1,0-0.2,0-0.3-0.1c-0.1,0-0.1-0.1-0.1-0.3v-0.1
			c0-0.3-0.1-0.5-0.2-0.7c-0.1-0.2-0.3-0.4-0.5-0.6c-0.2-0.2-0.4-0.3-0.7-0.4c-0.3-0.1-0.6-0.1-0.9-0.1c-0.7,0-1.3,0.1-1.7,0.4
			s-0.6,0.7-0.6,1.2c0,0.3,0.1,0.6,0.3,0.8c0.2,0.2,0.4,0.4,0.8,0.6c0.3,0.2,0.8,0.4,1.3,0.6c0.5,0.2,1.1,0.5,1.7,0.8
			c0.8,0.4,1.5,0.8,2.1,1.2c0.6,0.4,1,0.7,1.3,1.1c0.3,0.4,0.6,0.8,0.7,1.3c0.1,0.5,0.2,1,0.2,1.7c0,0.8-0.2,1.5-0.5,2.1
			c-0.3,0.6-0.7,1.2-1.3,1.7c-0.6,0.5-1.2,0.8-2,1.1c-0.8,0.3-1.6,0.4-2.5,0.4c-1,0-1.9-0.1-2.7-0.4s-1.5-0.7-2.1-1.2
			c-0.6-0.5-1-1.1-1.3-1.8C230.3,39.4,230.1,38.7,230.1,37.9L230.1,37.9z"/>
		<path class="st0" d="M244.9,39.9c0-0.2,0-0.3,0.1-0.4c0.1-0.1,0.2-0.1,0.3-0.1h3.1c0.2,0,0.3,0.1,0.4,0.2c0.1,0.1,0.1,0.2,0.1,0.3
			v2.7c0,0.2-0.1,0.3-0.2,0.4c-0.1,0.1-0.2,0.1-0.3,0.1h-3.1c-0.1,0-0.2,0-0.3-0.1c-0.1-0.1-0.2-0.2-0.2-0.4V39.9z"/>
		<path class="st0" d="M251.8,28.9c0.3-0.8,0.8-1.6,1.4-2.2c0.6-0.6,1.3-1.1,2.1-1.5c0.8-0.4,1.7-0.6,2.6-0.6c1,0,1.9,0.2,2.7,0.6
			c0.8,0.4,1.4,0.9,2,1.5s0.9,1.3,1.2,2.1s0.4,1.6,0.4,2.4v0.1c0,0.2,0,0.3-0.1,0.4c0,0.1-0.1,0.1-0.3,0.1H261c-0.2,0-0.3,0-0.4-0.1
			c-0.1,0-0.2-0.2-0.2-0.3v-0.2c0-0.4-0.1-0.8-0.2-1.2s-0.3-0.6-0.5-0.9c-0.2-0.2-0.5-0.4-0.8-0.5c-0.3-0.1-0.6-0.2-0.9-0.2
			c-0.4,0-0.7,0.1-1,0.2c-0.3,0.1-0.6,0.3-0.8,0.6s-0.4,0.6-0.5,0.9c-0.1,0.3-0.2,0.7-0.2,1.1v5.5c0,0.4,0.1,0.8,0.2,1.1
			c0.1,0.3,0.3,0.6,0.5,0.9s0.5,0.5,0.8,0.6c0.3,0.1,0.6,0.2,1,0.2c0.3,0,0.7-0.1,1-0.2c0.3-0.1,0.6-0.3,0.8-0.6
			c0.2-0.2,0.4-0.5,0.5-0.8c0.1-0.3,0.2-0.7,0.2-1V37c0-0.3,0.1-0.4,0.4-0.4h3c0.1,0,0.2,0,0.3,0.1c0,0.1,0.1,0.2,0.1,0.4v0.1
			c0,0.8-0.1,1.5-0.4,2.3c-0.3,0.8-0.7,1.4-1.2,2c-0.5,0.6-1.2,1.1-1.9,1.5c-0.8,0.4-1.6,0.6-2.6,0.6s-1.9-0.2-2.7-0.5
			c-0.8-0.3-1.5-0.8-2.1-1.4c-0.6-0.6-1.1-1.3-1.4-2.1c-0.3-0.8-0.5-1.7-0.5-2.6v-5.2C251.3,30.6,251.4,29.8,251.8,28.9z"/>
		<path class="st0" d="M266,31.5c0-0.9,0.2-1.8,0.5-2.6c0.3-0.8,0.8-1.5,1.4-2.2s1.3-1.1,2.1-1.5c0.8-0.4,1.7-0.6,2.6-0.6
			c0.9,0,1.8,0.2,2.6,0.5c0.8,0.4,1.5,0.8,2.1,1.5c0.6,0.6,1.1,1.3,1.4,2.2c0.3,0.8,0.5,1.7,0.5,2.7v5.1c0,0.9-0.2,1.8-0.5,2.7
			c-0.3,0.8-0.8,1.5-1.4,2.1c-0.6,0.6-1.3,1.1-2.1,1.4c-0.8,0.3-1.7,0.5-2.6,0.5s-1.8-0.2-2.6-0.5c-0.8-0.3-1.5-0.8-2.1-1.4
			c-0.6-0.6-1.1-1.3-1.4-2.1c-0.3-0.8-0.5-1.7-0.5-2.7V31.5z M270.1,36.8c0,0.4,0.1,0.7,0.2,1.1c0.1,0.3,0.3,0.6,0.5,0.9
			c0.2,0.3,0.5,0.5,0.8,0.6c0.3,0.1,0.6,0.2,1,0.2s0.7-0.1,1-0.2c0.3-0.1,0.6-0.3,0.8-0.6c0.2-0.3,0.4-0.6,0.5-0.9
			c0.1-0.3,0.2-0.7,0.2-1.1v-5.5c0-0.4-0.1-0.7-0.2-1.1c-0.1-0.3-0.3-0.6-0.5-0.9c-0.2-0.3-0.5-0.5-0.8-0.6s-0.6-0.2-1-0.2
			c-0.4,0-0.7,0.1-1,0.2s-0.6,0.4-0.8,0.6c-0.2,0.3-0.4,0.6-0.5,0.9s-0.2,0.7-0.2,1.1V36.8z"/>
		<path class="st0" d="M286,42.5c0,0.2-0.1,0.3-0.3,0.5c-0.2,0.1-0.3,0.2-0.5,0.2h-2.8c-0.2,0-0.3-0.1-0.4-0.2
			c-0.1-0.1-0.1-0.3-0.1-0.5V25.7c0-0.2,0-0.3,0.1-0.4c0.1-0.1,0.2-0.1,0.4-0.1h2.1c0.4,0,0.7,0.2,0.8,0.6l0.3,1.7
			c0.2-0.4,0.4-0.7,0.6-1c0.2-0.3,0.5-0.6,0.8-0.8s0.6-0.4,1-0.5c0.4-0.1,0.8-0.2,1.2-0.2c1.1,0,2,0.3,2.8,0.8
			c0.8,0.5,1.3,1.3,1.7,2.3c0.2-0.4,0.4-0.8,0.6-1.2c0.2-0.4,0.5-0.7,0.8-1c0.3-0.3,0.7-0.5,1.1-0.6c0.4-0.2,0.9-0.2,1.4-0.2
			c0.8,0,1.5,0.1,2.1,0.4s1.2,0.7,1.6,1.2s0.8,1.2,1,2.1c0.2,0.8,0.3,1.8,0.3,2.9v11.2c0,0.2,0,0.3-0.1,0.4
			c-0.1,0.1-0.2,0.1-0.4,0.1h-3.1c-0.2,0-0.3,0-0.4-0.1c-0.1-0.1-0.1-0.2-0.1-0.4V31.1c0-0.3-0.1-0.7-0.1-1
			c-0.1-0.3-0.2-0.6-0.4-0.8c-0.2-0.2-0.4-0.4-0.6-0.6s-0.6-0.2-0.9-0.2c-0.4,0-0.7,0.1-0.9,0.3c-0.3,0.2-0.5,0.4-0.7,0.7
			c-0.2,0.3-0.3,0.6-0.4,0.9c-0.1,0.3-0.1,0.7-0.1,1v11.2c0,0.2,0,0.3-0.1,0.4s-0.2,0.1-0.4,0.1h-3.1c-0.2,0-0.3,0-0.4-0.1
			c-0.1-0.1-0.1-0.2-0.1-0.4V31.2c0-0.4,0-0.7-0.1-1c-0.1-0.3-0.2-0.6-0.4-0.8c-0.2-0.2-0.4-0.4-0.6-0.6c-0.3-0.1-0.6-0.2-1-0.2
			c-0.4,0-0.7,0.1-0.9,0.3c-0.3,0.2-0.5,0.4-0.7,0.7c-0.2,0.3-0.3,0.6-0.4,0.9c-0.1,0.3-0.1,0.7-0.1,1V42.5z"/>
	</g>
</g>
</svg>
