<svg id="Layer_2" data-name="Layer 2" xmlns="http://www.w3.org/2000/svg" xmlns:xlink="http://www.w3.org/1999/xlink" viewBox="0 0 357 108"><defs><style>.cls-1{fill:#636466;}.cls-2{fill:none;}.cls-3{fill:url(#linear-gradient);}.cls-4{fill:url(#linear-gradient-2);}.cls-5{fill:#006991;}.cls-6{fill:#003963;}.cls-7{fill:url(#linear-gradient-3);}.cls-8{fill:url(#linear-gradient-4);}.cls-9{fill:url(#linear-gradient-5);}.cls-10{fill:url(#linear-gradient-6);}.cls-11{fill:url(#linear-gradient-7);}.cls-12{fill:url(#linear-gradient-8);}.cls-13{fill:url(#linear-gradient-9);}.cls-14{fill:url(#linear-gradient-10);}.cls-15{fill:url(#linear-gradient-11);}.cls-16{fill:url(#linear-gradient-12);}.cls-17{fill:url(#linear-gradient-13);}.cls-18{fill:url(#linear-gradient-14);}.cls-19{fill:url(#linear-gradient-15);}.cls-20{fill:url(#linear-gradient-16);}.cls-21{fill:url(#linear-gradient-17);}.cls-22{fill:url(#linear-gradient-18);}.cls-23{fill:url(#linear-gradient-19);}.cls-24{fill:url(#linear-gradient-20);}.cls-25{fill:url(#linear-gradient-21);}.cls-26{fill:url(#linear-gradient-22);}.cls-27{fill:url(#linear-gradient-23);}.cls-28{fill:url(#linear-gradient-24);}.cls-29{fill:url(#linear-gradient-25);}.cls-30{fill:url(#linear-gradient-26);}.cls-31{fill:url(#linear-gradient-27);}.cls-32{fill:url(#linear-gradient-28);}.cls-33{fill:url(#linear-gradient-29);}.cls-34{fill:url(#linear-gradient-30);}.cls-35{fill:url(#linear-gradient-31);}.cls-36{fill:url(#linear-gradient-32);}.cls-37{fill:url(#linear-gradient-33);}.cls-38{fill:url(#linear-gradient-34);}.cls-39{fill:url(#linear-gradient-35);}.cls-40{fill:url(#linear-gradient-36);}.cls-41{fill:url(#linear-gradient-37);}.cls-42{fill:url(#linear-gradient-38);}</style><linearGradient id="linear-gradient" x1="70.93" y1="73.58" x2="87.17" y2="28.31" gradientUnits="userSpaceOnUse"><stop offset="0" stop-color="#003963"/><stop offset="1" stop-color="#006991"/></linearGradient><linearGradient id="linear-gradient-2" x1="63.82" y1="71.03" x2="80.07" y2="25.75" xlink:href="#linear-gradient"/><linearGradient id="linear-gradient-3" x1="157.65" y1="54.39" x2="116.55" y2="54.8" xlink:href="#linear-gradient"/><linearGradient id="linear-gradient-4" x1="156.16" y1="81.77" x2="121.03" y2="26.95" gradientUnits="userSpaceOnUse"><stop offset="0" stop-color="#003963"/><stop offset="0.05" stop-color="#08446c"/><stop offset="0.26" stop-color="#296c8f"/><stop offset="0.46" stop-color="#438cab"/><stop offset="0.66" stop-color="#55a3bf"/><stop offset="0.84" stop-color="#60b1cb"/><stop offset="1" stop-color="#64b6cf"/></linearGradient><linearGradient id="linear-gradient-5" x1="157.04" y1="81.21" x2="121.92" y2="26.38" xlink:href="#linear-gradient-4"/><linearGradient id="linear-gradient-6" x1="157.82" y1="80.73" x2="122.69" y2="25.89" xlink:href="#linear-gradient-4"/><linearGradient id="linear-gradient-7" x1="140.7" y1="91.72" x2="105.55" y2="36.86" xlink:href="#linear-gradient-4"/><linearGradient id="linear-gradient-8" x1="141.62" y1="91.09" x2="106.5" y2="36.26" xlink:href="#linear-gradient-4"/><linearGradient id="linear-gradient-9" x1="142.23" y1="90.71" x2="107.1" y2="35.87" xlink:href="#linear-gradient-4"/><linearGradient id="linear-gradient-10" x1="142.85" y1="90.31" x2="107.72" y2="35.48" xlink:href="#linear-gradient-4"/><linearGradient id="linear-gradient-11" x1="158.76" y1="80.2" x2="123.59" y2="25.31" xlink:href="#linear-gradient-4"/><linearGradient id="linear-gradient-12" x1="158.37" y1="80.36" x2="123.24" y2="25.53" xlink:href="#linear-gradient-4"/><linearGradient id="linear-gradient-13" x1="152.14" y1="84.35" x2="117.02" y2="29.52" xlink:href="#linear-gradient-4"/><linearGradient id="linear-gradient-14" x1="139.92" y1="92.21" x2="104.78" y2="37.36" xlink:href="#linear-gradient-4"/><linearGradient id="linear-gradient-15" x1="150.35" y1="85.51" x2="115.22" y2="30.68" xlink:href="#linear-gradient-4"/><linearGradient id="linear-gradient-16" x1="139" y1="92.68" x2="103.92" y2="37.92" xlink:href="#linear-gradient-4"/><linearGradient id="linear-gradient-17" x1="155.05" y1="82.49" x2="119.92" y2="27.66" xlink:href="#linear-gradient-4"/><linearGradient id="linear-gradient-18" x1="153.75" y1="83.32" x2="118.62" y2="28.49" xlink:href="#linear-gradient-4"/><linearGradient id="linear-gradient-19" x1="58.24" y1="69.02" x2="74.48" y2="23.74" xlink:href="#linear-gradient"/><linearGradient id="linear-gradient-20" x1="127.46" y1="100.15" x2="92.34" y2="45.33" xlink:href="#linear-gradient-4"/><linearGradient id="linear-gradient-21" x1="126.25" y1="98.51" x2="95.44" y2="50.41" xlink:href="#linear-gradient-4"/><linearGradient id="linear-gradient-22" x1="113.16" y1="21.76" x2="95.66" y2="-5.55" gradientUnits="userSpaceOnUse"><stop offset="0" stop-color="#006991"/><stop offset="0.16" stop-color="#1b7ea2"/><stop offset="0.39" stop-color="#3b96b5"/><stop offset="0.61" stop-color="#51a8c3"/><stop offset="0.82" stop-color="#5fb2cc"/><stop offset="1" stop-color="#64b6cf"/></linearGradient><linearGradient id="linear-gradient-23" x1="114.58" y1="20.85" x2="97.09" y2="-6.46" xlink:href="#linear-gradient-22"/><linearGradient id="linear-gradient-24" x1="111.44" y1="22.86" x2="93.94" y2="-4.45" xlink:href="#linear-gradient-22"/><linearGradient id="linear-gradient-25" x1="109.52" y1="24.09" x2="92.03" y2="-3.22" xlink:href="#linear-gradient-22"/><linearGradient id="linear-gradient-26" x1="99.67" y1="30.4" x2="82.17" y2="3.09" xlink:href="#linear-gradient-22"/><linearGradient id="linear-gradient-27" x1="97.89" y1="31.54" x2="80.4" y2="4.23" xlink:href="#linear-gradient-22"/><linearGradient id="linear-gradient-28" x1="118.79" y1="18.15" x2="101.3" y2="-9.16" xlink:href="#linear-gradient-22"/><linearGradient id="linear-gradient-29" x1="118.35" y1="18.43" x2="100.86" y2="-8.88" xlink:href="#linear-gradient-22"/><linearGradient id="linear-gradient-30" x1="102.81" y1="28.39" x2="85.32" y2="1.08" xlink:href="#linear-gradient-22"/><linearGradient id="linear-gradient-31" x1="102.16" y1="28.8" x2="84.67" y2="1.5" xlink:href="#linear-gradient-22"/><linearGradient id="linear-gradient-32" x1="115.83" y1="20.05" x2="98.33" y2="-7.26" xlink:href="#linear-gradient-22"/><linearGradient id="linear-gradient-33" x1="118.95" y1="18.05" x2="101.44" y2="-9.27" xlink:href="#linear-gradient-22"/><linearGradient id="linear-gradient-34" x1="117.69" y1="18.86" x2="100.19" y2="-8.45" xlink:href="#linear-gradient-22"/><linearGradient id="linear-gradient-35" x1="116.9" y1="19.36" x2="99.4" y2="-7.95" xlink:href="#linear-gradient-22"/><linearGradient id="linear-gradient-36" x1="100.5" y1="29.87" x2="83.01" y2="2.57" xlink:href="#linear-gradient-22"/><linearGradient id="linear-gradient-37" x1="101.34" y1="29.33" x2="83.84" y2="2.03" xlink:href="#linear-gradient-22"/><linearGradient id="linear-gradient-38" x1="98.56" y1="31.23" x2="81.23" y2="4.18" gradientUnits="userSpaceOnUse"><stop offset="0" stop-color="#006991"/><stop offset="0.1" stop-color="#0f759a"/><stop offset="0.36" stop-color="#3491b1"/><stop offset="0.61" stop-color="#4ea5c2"/><stop offset="0.83" stop-color="#5eb2cc"/><stop offset="1" stop-color="#64b6cf"/></linearGradient></defs><path class="cls-1" d="M203.73,17.68c.32-.91.55-1.66,1.57-1.66a1.07,1.07,0,0,1,1.13,1,2.87,2.87,0,0,1-.17,1L200,35.68c-.3.85-.61,1.4-1.49,1.4s-1.19-.55-1.48-1.4l-6.31-17.63a2.88,2.88,0,0,1-.18-1,1.08,1.08,0,0,1,1.14-1c1,0,1.25.75,1.57,1.66l5.23,15.09h.06Z"/><path class="cls-1" d="M212.28,35.71a1.28,1.28,0,1,1-2.56,0V17.38a1.28,1.28,0,1,1,2.56,0Z"/><path class="cls-1" d="M224.7,34.87c3.12,0,4.49-1.86,5.56-1.86.61,0,1,.46,1,1.19,0,1.31-2.94,2.88-6.58,2.88-6,0-9.07-5.15-9.07-10.53S218.71,16,224.85,16c3.67,0,6,2,6,3a1.1,1.1,0,0,1-1,1.22c-1.17,0-1.75-2-5-2-4.6,0-6.49,4.36-6.49,8.32S220.31,34.87,224.7,34.87Z"/><path class="cls-1" d="M238.61,18.58h-3.87a1.2,1.2,0,1,1,0-2.39H245a1.12,1.12,0,0,1,1.25,1.19,1.12,1.12,0,0,1-1.25,1.2h-3.87V35.71a1.28,1.28,0,1,1-2.56,0Z"/><path class="cls-1" d="M257.2,16c5.91,0,9.08,5.15,9.08,10.53s-3.17,10.53-9.08,10.53-9.07-5.15-9.07-10.53S251.3,16,257.2,16Zm0,18.85c4.66,0,6.34-4.37,6.34-8.32s-1.68-8.32-6.34-8.32-6.34,4.36-6.34,8.32S252.55,34.87,257.2,34.87Z"/><path class="cls-1" d="M271.72,35.71a1.28,1.28,0,1,1-2.56,0V17.59a1.26,1.26,0,0,1,1.37-1.4h4.74c3.26,0,6.34,2.21,6.34,5.59,0,4.19-2.56,5.76-5.64,5.87l-1.11,0,6.61,7.25a1.53,1.53,0,0,1,.49,1.16,1.08,1.08,0,0,1-1.16,1,1.53,1.53,0,0,1-1.17-.58l-7.91-8.67Zm0-9.95h3.49c2.68,0,3.84-1.13,3.84-3.81a3.62,3.62,0,0,0-3.9-3.55h-3.43Z"/><path class="cls-1" d="M288.28,35.71a1.28,1.28,0,1,1-2.56,0V17.38a1.28,1.28,0,1,1,2.56,0Z"/><path class="cls-1" d="M293.6,36.12a1.26,1.26,0,0,1-1.25,1A1.11,1.11,0,0,1,291.13,36a5.32,5.32,0,0,1,.35-1.28l6.43-17.13c.32-.9.84-1.57,1.83-1.57s1.51.67,1.83,1.57L308,34.72a5.32,5.32,0,0,1,.35,1.28,1.11,1.11,0,0,1-1.22,1.08,1.26,1.26,0,0,1-1.25-1l-1.34-3.72h-9.6ZM299.77,19h-.06l-4,11.2h8Z"/><path class="cls-1" d="M313.76,35.71a1.28,1.28,0,1,1-2.56,0V17.53c0-1,.35-1.51,1.17-1.51s1.1.32,1.8,1.34l10.47,15h.06v-15a1.28,1.28,0,1,1,2.56,0V35.57c0,1-.35,1.51-1.16,1.51s-1.11-.32-1.81-1.34l-10.47-15h-.06Z"/><path class="cls-1" d="M192.64,45A1.26,1.26,0,0,1,194,43.61h4.51c3.67,0,5.59,2.59,5.59,4.94a4.51,4.51,0,0,1-2.88,4.54v.06a5.05,5.05,0,0,1,4.48,5.12c0,3.26-2.42,6-6.78,6H194a1.26,1.26,0,0,1-1.37-1.4Zm2.56,7.36h2.91A3.2,3.2,0,0,0,201.55,49a3,3,0,0,0-3.35-3.2h-3Zm0,9.75h3.61c2.5,0,4.34-1.54,4.34-3.84,0-2.12-1.55-3.81-4.22-3.81H195.2Z"/><path class="cls-1" d="M209.14,44.8a1.28,1.28,0,1,1,2.56,0V57.11c0,3.25,2.21,5.17,5.47,5.17s5.47-1.92,5.47-5.17V44.8a1.28,1.28,0,1,1,2.56,0V56.12c0,7-4.48,8.38-8,8.38s-8-1.4-8-8.38Z"/><path class="cls-1" d="M232,63.13a1.28,1.28,0,1,1-2.56,0V44.8a1.28,1.28,0,1,1,2.56,0Z"/><path class="cls-1" d="M239.4,61.94h5.47a1.19,1.19,0,1,1,0,2.38H238.2a1.26,1.26,0,0,1-1.36-1.4V44.8a1.28,1.28,0,1,1,2.56,0Z"/><path class="cls-1" d="M250.34,45a1.25,1.25,0,0,1,1.36-1.39h5c6.16,0,9.19,4.77,9.19,10.24,0,6.19-3.29,10.47-8.84,10.47H251.7a1.26,1.26,0,0,1-1.36-1.4Zm2.56,17.11h3.66c4.83,0,6.64-4,6.64-8.26s-1.92-8-6.81-8H252.9Z"/><path class="cls-1" d="M272,63.13a1.28,1.28,0,1,1-2.56,0V44.8a1.28,1.28,0,1,1,2.56,0Z"/><path class="cls-1" d="M278.76,63.13a1.28,1.28,0,1,1-2.56,0V45c0-1,.35-1.52,1.17-1.52s1.1.32,1.8,1.34l10.47,15h.06v-15a1.28,1.28,0,1,1,2.56,0V63c0,1-.35,1.52-1.16,1.52s-1.11-.32-1.81-1.34l-10.47-15h-.06Z"/><path class="cls-1" d="M307.48,54.84a1.2,1.2,0,1,1,0-2.39h4.3c1.31,0,1.86.5,1.86,2.1,0,5-1.8,10-8.84,10-6,0-9.08-5.15-9.08-10.54s3-10.53,9.46-10.53c4.25,0,7.1,2.21,7.1,3.32A1.19,1.19,0,0,1,311.06,48c-1.28,0-2.33-2.33-6.06-2.33-4.65,0-6.54,4.37-6.54,8.32s1.83,8.32,6.66,8.32a6,6,0,0,0,6-6.22V54.84Z"/><path class="cls-1" d="M193.14,91a1.26,1.26,0,0,1-1.25,1,1.11,1.11,0,0,1-1.22-1.07,5.83,5.83,0,0,1,.34-1.28l6.43-17.14c.32-.9.85-1.57,1.84-1.57s1.51.67,1.83,1.57l6.43,17.14a5.32,5.32,0,0,1,.35,1.28,1.11,1.11,0,0,1-1.23,1.07,1.27,1.27,0,0,1-1.25-1l-1.33-3.72h-9.6Zm6.17-17.13h-.06l-4,11.2h8Z"/><path class="cls-1" d="M210.16,72.22a1.28,1.28,0,1,1,2.56,0v12.3c0,3.26,2.21,5.18,5.47,5.18s5.47-1.92,5.47-5.18V72.22a1.28,1.28,0,1,1,2.56,0V83.53c0,7-4.48,8.38-8,8.38s-8-1.39-8-8.38Z"/><path class="cls-1" d="M234,73.41h-3.87a1.2,1.2,0,1,1,0-2.39h10.3a1.2,1.2,0,1,1,0,2.39h-3.87V90.54a1.28,1.28,0,1,1-2.56,0Z"/><path class="cls-1" d="M247.4,90.37c0,1-.5,1.54-1.28,1.54s-1.28-.52-1.28-1.54v-18c0-1,.49-1.54,1.28-1.54s1.28.52,1.28,1.54v7.86h10.91V72.39c0-1,.49-1.54,1.28-1.54s1.28.52,1.28,1.54v18c0,1-.5,1.54-1.28,1.54s-1.28-.52-1.28-1.54V82.46H247.4Z"/><path class="cls-1" d="M273.41,70.85c5.9,0,9.07,5.15,9.07,10.53s-3.17,10.53-9.07,10.53-9.08-5.15-9.08-10.53S267.5,70.85,273.41,70.85Zm0,18.85c4.65,0,6.34-4.36,6.34-8.32s-1.69-8.32-6.34-8.32-6.34,4.36-6.34,8.32S268.75,89.7,273.41,89.7Z"/><path class="cls-1" d="M288.51,90.54a1.28,1.28,0,1,1-2.56,0V72.42a1.26,1.26,0,0,1,1.37-1.4h4.74c3.26,0,6.34,2.22,6.34,5.59,0,4.19-2.56,5.76-5.64,5.88l-1.11,0,6.6,7.24a1.57,1.57,0,0,1,.5,1.16,1.08,1.08,0,0,1-1.16,1,1.52,1.52,0,0,1-1.17-.58l-7.91-8.67Zm0-10H292c2.68,0,3.84-1.13,3.84-3.81a3.61,3.61,0,0,0-3.9-3.54h-3.43Z"/><path class="cls-1" d="M304.48,90.54a1.28,1.28,0,1,1-2.56,0V72.22a1.28,1.28,0,1,1,2.56,0Z"/><path class="cls-1" d="M312.8,73.41h-3.87a1.2,1.2,0,1,1,0-2.39h10.3a1.2,1.2,0,1,1,0,2.39h-3.87V90.54a1.28,1.28,0,1,1-2.56,0Z"/><path class="cls-1" d="M328.57,82,323,73a2,2,0,0,1-.4-1.07,1.07,1.07,0,0,1,1.16-1.05,1.39,1.39,0,0,1,1.28.81l4.8,7.83,4.8-7.83a1.4,1.4,0,0,1,1.28-.81,1.08,1.08,0,0,1,1.17,1.05,2,2,0,0,1-.41,1.07l-5.56,9v8.52a1.28,1.28,0,1,1-2.56,0Z"/><path class="cls-2" d="M107.42,43.32a7,7,0,0,0,.56-.75l.13-.2a6.19,6.19,0,0,0,.36-.67c0-.11.11-.21.16-.32a7.24,7.24,0,0,0,.3-.86,4.88,4.88,0,0,0,.16-.66c0-.12.06-.24.08-.36l.09-.66c0-.23,0-.46,0-.7s0-.24,0-.36c0-5-4.34-7.6-9.46-7.6H90.75v16l7.55.17a13.6,13.6,0,0,0,6.5-1.09,8.28,8.28,0,0,0,2.58-1.93Z"/><path class="cls-2" d="M139.66,29.75l-6.34,17.76H146l-5.29-15.13S140.35,31.26,139.66,29.75Z"/><path class="cls-2" d="M103.13,60.46H90.75v17.9h13.78c6.31,0,11-3.35,11-9.38C115.51,63.91,111.31,60.46,103.13,60.46Z"/><path class="cls-3" d="M71.66,71.54l0-.06a.79.79,0,0,1-.05.15Z"/><path class="cls-4" d="M75.83,20.66v-.14a8.34,8.34,0,0,1,.2-1.77,6.73,6.73,0,0,1,.84-2.24,12.37,12.37,0,0,0-1.21,2.55l-18,46.73h0s7.15,18.43,14,5.67c1.35-4.1,2.8-8.55,4.14-12.81v-38Z"/><polygon class="cls-5" points="23.11 26.91 23.11 26.91 23.11 26.91 23.11 26.91"/><path class="cls-5" d="M71.69,71.46h0v0Z"/><path class="cls-5" d="M57.68,65.79h0L40.08,22.52c-2.74-5.67-4.76-12.91-13.41-9.35S22,24.27,23.11,26.91h0c1.13,2.7,24.59,57.89,25.55,60a12,12,0,0,0,1.74,3A8.87,8.87,0,0,0,58,94.07c3.94,0,7.08-2.19,8.94-8,2.89-9,4.36-13.51,4.65-14.41a.79.79,0,0,0,.05-.15v0C64.83,84.22,57.68,65.79,57.68,65.79Z"/><path class="cls-6" d="M120.73,47.53l.36,0h12.23l6.34-17.76c-2.19-4.82-7.54-13.73-13.9-4.1l-.88,2.2a17.62,17.62,0,0,1,1,5.82A20,20,0,0,1,120.73,47.53Z"/><path class="cls-7" d="M146,47.51H121.09l-.36,0A17.21,17.21,0,0,1,117.82,50a22.32,22.32,0,0,1,3.59,1.61c.45.25.89.51,1.32.79a21.49,21.49,0,0,1,6.62,6.77c.57.92,1.32,2.53,1.32,2.53s15.54,0,20.3,0Z"/><path class="cls-5" d="M175.71,81.83,153.36,24.92C148.67,11.77,139.84,13,139.84,13h-.1a6,6,0,0,0-.84.07,13.25,13.25,0,0,0-8.91,4.4c-2.46,2.56-4.23,8.16-4.23,8.16,6.36-9.63,11.71-.72,13.9,4.1.69,1.51,1.07,2.63,1.07,2.63L146,47.51,151,61.7l9.12,26.13c3.41,8.73,11.45,5.74,11.45,5.74C180.13,90.64,175.71,81.83,175.71,81.83Z"/><path class="cls-8" d="M113.52,15.92c.45.2.88.41,1.31.64C114.4,16.33,114,16.12,113.52,15.92Z"/><path class="cls-9" d="M115.65,17c.29.17.57.33.84.51C116.22,17.33,115.94,17.17,115.65,17Z"/><path class="cls-10" d="M117.66,18.3l.66.51Z"/><path class="cls-11" d="M108.63,41.38c0,.11-.11.21-.16.32C108.52,41.59,108.58,41.49,108.63,41.38Z"/><path class="cls-12" d="M109.09,39.86a4.88,4.88,0,0,1-.16.66A4.88,4.88,0,0,0,109.09,39.86Z"/><path class="cls-13" d="M109.26,38.84l-.09.66C109.2,39.28,109.24,39.06,109.26,38.84Z"/><path class="cls-14" d="M109.32,37.84v-.06c0,.12,0,.24,0,.36C109.31,38,109.32,37.94,109.32,37.84Z"/><path class="cls-15" d="M121.07,21.37l0,0Z"/><path class="cls-16" d="M119.48,19.78l.39.37Z"/><path class="cls-17" d="M106.72,13.9l.66.11Z"/><path class="cls-18" d="M108.11,42.37l-.13.2Z"/><path class="cls-19" d="M104.07,13.58l.42,0Z"/><path class="cls-20" d="M107.42,43.32l0,0Z"/><path class="cls-21" d="M111.42,15.08l1.18.44Z"/><path class="cls-22" d="M109.28,14.43l.81.23Z"/><path class="cls-23" d="M75.83,20.52v.14a9.49,9.49,0,0,1,.2-1.91A8.34,8.34,0,0,0,75.83,20.52Z"/><path class="cls-24" d="M75.83,20.52v.14a9.49,9.49,0,0,1,.2-1.91A8.34,8.34,0,0,0,75.83,20.52Z"/><path class="cls-25" d="M130.64,61.62a20.42,20.42,0,0,0-1.29-2.45,21.18,21.18,0,0,0-6.62-6.77c-.43-.28-.87-.54-1.32-.79A22.32,22.32,0,0,0,117.82,50a17.21,17.21,0,0,0,2.91-2.47,20,20,0,0,0,5.17-13.86,17.62,17.62,0,0,0-1-5.82,19.63,19.63,0,0,0-3.78-6.44,16.71,16.71,0,0,1,3.17,8,10.41,10.41,0,0,1-3.41,8.52c-2.91,2.86-7.94,5.5-16.18,7.46l.12-.06a13.6,13.6,0,0,1-6.5,1.09l-7.55-.17v-16h0a20.53,20.53,0,0,0-9.63,2.51,10.55,10.55,0,0,0-5.29,8.11V87c0,4.34,2.88,7,7.51,7h19.75c17.21,0,29.24-10,29.24-24.29A20.09,20.09,0,0,0,130.64,61.62ZM104.53,78.36H90.75V60.46h12.38c8.18,0,12.38,3.45,12.38,8.52C115.51,75,110.84,78.36,104.53,78.36Z"/><path class="cls-26" d="M107.38,14c.65.12,1.28.26,1.9.42C108.66,14.27,108,14.13,107.38,14Z"/><path class="cls-27" d="M110.09,14.66c.45.13.9.27,1.33.42C111,14.93,110.54,14.79,110.09,14.66Z"/><path class="cls-28" d="M104.49,13.61c.76.07,1.5.17,2.23.29C106,13.78,105.25,13.68,104.49,13.61Z"/><path class="cls-29" d="M101.45,13.48c.9,0,1.77,0,2.62.1C103.22,13.52,102.35,13.48,101.45,13.48Z"/><path class="cls-30" d="M108,42.57a7,7,0,0,1-.56.75A8.12,8.12,0,0,0,108,42.57Z"/><path class="cls-31" d="M107.38,43.37a8.28,8.28,0,0,1-2.58,1.93A7.94,7.94,0,0,0,107.38,43.37Z"/><path class="cls-32" d="M119.87,20.15c.42.4.82.8,1.2,1.22C120.69,21,120.29,20.55,119.87,20.15Z"/><path class="cls-33" d="M118.32,18.81c.4.31.79.63,1.16,1C119.11,19.44,118.72,19.12,118.32,18.81Z"/><path class="cls-34" d="M109.3,38.14c0,.24,0,.47,0,.7C109.28,38.61,109.29,38.38,109.3,38.14Z"/><path class="cls-35" d="M109.17,39.5c0,.12,0,.24-.08.36C109.12,39.74,109.15,39.62,109.17,39.5Z"/><path class="cls-36" d="M112.6,15.52l.92.4Z"/><polygon class="cls-37" points="121.09 21.4 121.09 21.4 121.1 21.41 121.09 21.4"/><path class="cls-38" d="M116.49,17.51c.4.25.79.52,1.17.79C117.28,18,116.89,17.76,116.49,17.51Z"/><path class="cls-39" d="M114.83,16.56c.28.14.55.29.82.44C115.38,16.85,115.11,16.7,114.83,16.56Z"/><path class="cls-40" d="M108.47,41.7a6.19,6.19,0,0,1-.36.67A6.19,6.19,0,0,0,108.47,41.7Z"/><path class="cls-41" d="M108.93,40.52a7.24,7.24,0,0,1-.3.86A7.24,7.24,0,0,0,108.93,40.52Z"/><path class="cls-42" d="M124.27,29.38a16.71,16.71,0,0,0-3.17-8h0l0,0c-.38-.42-.78-.82-1.2-1.22l-.39-.37c-.37-.34-.76-.66-1.16-1l-.66-.51c-.38-.27-.77-.54-1.17-.79s-.55-.34-.84-.51-.54-.3-.82-.44-.86-.44-1.31-.64l-.92-.4-1.18-.44c-.43-.15-.88-.29-1.33-.42l-.81-.23c-.62-.16-1.25-.3-1.9-.42l-.66-.11c-.73-.12-1.47-.22-2.23-.29l-.42,0c-.85-.06-1.72-.1-2.62-.1H83.34a11.77,11.77,0,0,0-1.49.1h0A6.66,6.66,0,0,0,77.22,16c-.12.16-.24.31-.35.48A6.73,6.73,0,0,0,76,18.75a9.49,9.49,0,0,0-.2,1.91V40.8a10.55,10.55,0,0,1,5.29-8.11,20.53,20.53,0,0,1,9.63-2.51h9.11c5.12,0,9.42,2.57,9.46,7.6v.06c0,.1,0,.2,0,.3s0,.47,0,.7-.06.44-.09.66,0,.24-.08.36a4.88,4.88,0,0,1-.16.66,7.24,7.24,0,0,1-.3.86c0,.11-.11.21-.16.32a6.19,6.19,0,0,1-.36.67l-.13.2a8.12,8.12,0,0,1-.56.75l0,0a7.94,7.94,0,0,1-2.58,1.93l-.12.06c8.24-2,13.27-4.6,16.18-7.46A10.41,10.41,0,0,0,124.27,29.38Z"/></svg>